PathFileType	4	(X/Y/Z)	/Users/niels/Desktop/University/Third Semester/Perception and Action/Exam/Gymnastics Motion Tracking/Code for Gym Tracking/Analyzed Data/Webcam_Backflip/id4_5_baseline_Sports2D/id4_5_baseline_Sports2D_px_person00.trc
DataRate	CameraRate	NumFrames	NumMarkers	Units	OrigDataRate	OrigDataStartFrame	OrigNumFrames
29.8125	29.8125	12	22	m	29.8125	0	160
Frame#	Time	Hip			RHip			RKnee			RAnkle			RBigToe			RSmallToe			RHeel			LHip			LKnee			LAnkle			LBigToe			LSmallToe			LHeel			Neck			Head			Nose			RShoulder			RElbow			RWrist			LShoulder			LElbow			LWrist		
		X1	Y1	Z1	X2	Y2	Z2	X3	Y3	Z3	X4	Y4	Z4	X5	Y5	Z5	X6	Y6	Z6	X7	Y7	Z7	X8	Y8	Z8	X9	Y9	Z9	X10	Y10	Z10	X11	Y11	Z11	X12	Y12	Z12	X13	Y13	Z13	X14	Y14	Z14	X15	Y15	Z15	X16	Y16	Z16	X17	Y17	Z17	X18	Y18	Z18	X19	Y19	Z19	X20	Y20	Z20	X21	Y21	Z21	X22	Y22	Z22
0	0.0	0.9351622773036866	-0.5405907077812946	0.0	0.931731996313001	-0.544020216450419	0.0	0.9643041190387505	-0.6506198043137119	0.0	0.9540119977794311	-0.7606023520501959	0.0	0.9849428204069581	-0.786371088984145	0.0	0.9746309872415273	-0.7880912000815018	0.0	0.9436992210092069	-0.7743488877180051	0.0	0.929998936804577	-0.5405823670312647	0.0	0.960876783108533	-0.6489032253765074	0.0	0.9540188728082262	-0.7605870977692346	0.0	0.9832425464080402	-0.7863572388286523	0.0	0.9780794199189128	-0.7811981026988931	0.0	0.9419832242408382	-0.7777679620682153	0.0	0.9952338002823791	-0.4065351328102528	0.0	1.0450299015872035	-0.3618836396813952	0.0	1.0381750393356406	-0.3876364975261358	0.0	0.9900904344326422	-0.41339687354913934	0.0	0.9298949352943632	-0.3839868573522847	0.0	0.8747714000389364	-0.33912996222899894	0.0	0.9831756551436529	-0.40994225915260984	0.0	0.9281085186176268	-0.3822780296710574	0.0	0.8816093354739016	-0.3391398525141331	0.0
1	0.03354297693920335	0.9309544823402073	-0.5362678559989531	0.0	0.9268559301015147	-0.5386709515039387	0.0	0.9699653262377655	-0.6437860158663381	0.0	0.9542649546799442	-0.75313631584857	0.0	0.9866916975982146	-0.7793786709323175	0.0	0.9763958286867721	-0.7814812720885365	0.0	0.9436665884823259	-0.7667402711198744	0.0	0.9250071571912127	-0.5350657587345115	0.0	0.9651879545954827	-0.6414209437816458	0.0	0.9540761233914653	-0.7516564565404742	0.0	0.9818660066641298	-0.7765175800000422	0.0	0.9776540826011674	-0.7740084971953062	0.0	0.9394007538127858	-0.7681630089353944	0.0	0.9949569330709453	-0.40590792664068115	0.0	1.0456843436900825	-0.359138014146168	0.0	1.0392556499546521	-0.38546025946502255	0.0	0.9891325291519083	-0.4125938395060221	0.0	0.9263374349424961	-0.3838022865100549	0.0	0.8680554003632796	-0.3419355076000152	0.0	0.9832165723789397	-0.4084774342459208	0.0	0.9257657530569721	-0.3836580435983029	0.0	0.8759254700937525	-0.34304371783071064	0.0
2	0.0670859538784067	0.9269471877319657	-0.533310200918251	0.0	0.922346616408447	-0.5347144551063283	0.0	0.9753957078641831	-0.6375841767999639	0.0	0.9542494198146609	-0.7459523168297841	0.0	0.9879517521408265	-0.7726535943328096	0.0	0.9776605873430758	-0.775091345275415	0.0	0.9432881610687506	-0.7594431037375836	0.0	0.9204302268245186	-0.5309130476504212	0.0	0.969571538948701	-0.6345264706963425	0.0	0.953936350793538	-0.7430477827609058	0.0	0.9806793205807701	-0.7670539827818595	0.0	0.9771886936002426	-0.7672233393942409	0.0	0.9371014097009684	-0.758862568548699	0.0	0.9945181879189818	-0.40648029593122237	0.0	1.046004372703751	-0.3573892350951672	0.0	1.040164024927454	-0.3843855275055151	0.0	0.9882387876615243	-0.413313011097196	0.0	0.9227114866559112	-0.38703272388804183	0.0	0.8612288175232645	-0.349732339070176	0.0	0.9829848181487167	-0.40845572851837864	0.0	0.9230255719618735	-0.38788808397642627	0.0	0.8697814764452635	-0.3515984493317253	0.0
3	0.10062893081761004	0.9233133742052645	-0.532999149904446	0.0	0.9185358275842679	-0.5335299522149367	0.0	0.9803480443194036	-0.6329195077673555	0.0	0.9537467844844314	-0.7397872211700401	0.0	0.9883398074962465	-0.7668111413200285	0.0	0.9780548643533941	-0.7695329882415634	0.0	0.9422884579253165	-0.753198952927718	0.0	0.9166370366446432	-0.5295065047044523	0.0	0.9739863916122394	-0.6291735866692514	0.0	0.953461991310451	-0.735522391136766	0.0	0.9798878148712896	-0.7588502193482096	0.0	0.9766607741964649	-0.7613382819378071	0.0	0.9352306835178171	-0.7506424995245075	0.0	0.9937804363643344	-0.4092826377443072	0.0	1.0455070682570604	-0.3575576788413155	0.0	1.040529901971228	-0.3852991489220898	0.0	0.9874307112543108	-0.41682058838474206	0.0	0.9194390903767387	-0.3964564526096127	0.0	0.8552487984500943	-0.36648357991982	0.0	0.9822898236905111	-0.41117664899127493	0.0	0.920116930026739	-0.39728921345460905	0.0	0.86384635099137	-0.3684078622990027	0.0
4	0.1341719077568134	0.9201496836038993	-0.5362594004357403	0.0	0.9156166967108791	-0.5361607185207466	0.0	0.9845760235086024	-0.6308207461263472	0.0	0.952597306765455	-0.7357041948895789	0.0	0.9876527983952672	-0.7627640639209057	0.0	0.9774092000633325	-0.7657329637241596	0.0	0.9404777119993987	-0.7490576554056204	0.0	0.9138623766609993	-0.5319275914139574	0.0	0.9782279864523766	-0.6265267168802923	0.0	0.952600128054763	-0.7302182924723861	0.0	0.9795963341909937	-0.7532383805144889	0.0	0.9761399178216044	-0.7569736589901407	0.0	0.9337007052560132	-0.7447176423961601	0.0	0.992664495144279	-0.41487980921668915	0.0	1.0436661342601743	-0.3603082828532897	0.0	1.039870353130641	-0.3887245419679546	0.0	0.9866230121250849	-0.42377859238851706	0.0	0.9174263502977925	-0.41363226887533144	0.0	0.8521703630415962	-0.39445224662196954	0.0	0.9810357024713452	-0.4174433547694299	0.0	0.9179174947721617	-0.4133365058165961	0.0	0.860135133967619	-0.3954343750939853	0.0
5	0.16771488469601675	0.9174542558795639	-0.543628181596574	0.0	0.9135462680697822	-0.5431929465147667	0.0	0.9878244797560953	-0.6323318520991532	0.0	0.9507522937200324	-0.734917260373606	0.0	0.9859626267335406	-0.7616020971127193	0.0	0.9758222547870867	-0.7647871859434637	0.0	0.9378440378747627	-0.7482114009018995	0.0	0.9121722204738362	-0.538837549186576	0.0	0.9819548743655869	-0.6277689954675586	0.0	0.951372310787613	-0.7285082028824901	0.0	0.9797129478973122	-0.751680943350194	0.0	0.9757871496796293	-0.7551316179146745	0.0	0.9322317192191382	-0.7425695440056939	0.0	0.9910716209516728	-0.4233834891147088	0.0	1.0399879058157198	-0.36599965482275015	0.0	1.03771365486183	-0.3949160810710358	0.0	0.985526513775665	-0.4342279516584696	0.0	0.9180408131833434	-0.4385474616748089	0.0	0.8550834239508701	-0.4334948088632859	0.0	0.979191939803048	-0.42744562990657775	0.0	0.9178875445466956	-0.43628070193139434	0.0	0.8619255821505579	-0.4324069179094668	0.0
6	0.20125786163522008	0.9151210752901418	-0.5552325258155852	0.0	0.9120746303192501	-0.5547163174321207	0.0	0.9898378241591967	-0.6383148832539451	0.0	0.9483532104174056	-0.7385657983290028	0.0	0.9836458215679659	-0.764380738308674	0.0	0.9736730065160623	-0.7677426220592767	0.0	0.9346581520689788	-0.7517724144028035	0.0	0.9114637980518001	-0.5504155943544012	0.0	0.9848454305264153	-0.6338320741494634	0.0	0.9498647755791224	-0.731667751505269	0.0	0.9801064593278841	-0.7552951044533907	0.0	0.9757562462983198	-0.757183876270013	0.0	0.9305736848478585	-0.745543918407621	0.0	0.9888072612140314	-0.4345979886658685	0.0	1.0341082629069283	-0.374677153320639	0.0	1.0337378304590428	-0.4038795965890158	0.0	0.9837083216962732	-0.4477101431491101	0.0	0.922789185537328	-0.46943677002036543	0.0	0.8674037831400996	-0.48045948062175725	0.0	0.9767840580573833	-0.4408165098235828	0.0	0.9217349846967284	-0.46466704469774356	0.0	0.872900760302501	-0.4762002999024057	0.0
7	0.23480083857442344	0.9129497551875135	-0.570729453584464	0.0	0.9107960036245927	-0.5703267346912009	0.0	0.9903884190748512	-0.6492674602935532	0.0	0.9457713299825956	-0.7474697065922241	0.0	0.9813342205589434	-0.7718983973414476	0.0	0.9715865555829776	-0.7753851631237545	0.0	0.9314655261198255	-0.7605094048773758	0.0	0.9114313935322895	-0.5662932954562806	0.0	0.9866430196616585	-0.6451867843752862	0.0	0.9482241792707712	-0.7405642842238879	0.0	0.9807608991453705	-0.7645512233097588	0.0	0.9760414784114243	-0.7644267324382878	0.0	0.9287665853327726	-0.7544172039621522	0.0	0.9856439121011669	-0.44812878692041114	0.0	1.0258857826010885	-0.3860094448477543	0.0	1.0279098108446314	-0.4152902254763444	0.0	0.9807590477769991	-0.4634115475498419	0.0	0.9327130348735588	-0.5027930006895808	0.0	0.8915022030865855	-0.5290353713080373	0.0	0.9739799029185855	-0.4567968129710205	0.0	0.9309559227426117	-0.49523327851225657	0.0	0.8957921165610347	-0.5207014335670935	0.0
8	0.2683438155136268	0.9108167880238847	-0.5892424989225912	0.0	0.9092777682656641	-0.589102470754959	0.0	0.9893403833682174	-0.6651504268232316	0.0	0.9435142545842041	-0.7618068269080185	0.0	0.979740740049736	-0.7843447927487608	0.0	0.9702693264156239	-0.7879244580070832	0.0	0.9289059903061767	-0.7745029205874701	0.0	0.9116311150364362	-0.5854986473685003	0.0	0.9870345288569576	-0.6616877122580742	0.0	0.9466154848423487	-0.7553798350340324	0.0	0.9816185168853981	-0.7791021584520922	0.0	0.9763721405883987	-0.7773271752508669	0.0	0.927131900908487	-0.7690528543509976	0.0	0.9814797461295739	-0.4633605066741419	0.0	1.0154330249497023	-0.3991618210352235	0.0	1.02050723987425	-0.42842764020047375	0.0	0.9764451304765734	-0.4802812484014937	0.0	0.9477677907566697	-0.533804857399709	0.0	0.9270438099727845	-0.5705636223172336	0.0	0.9711111115876829	-0.4743269905670968	0.0	0.9461366308480521	-0.5234336529432844	0.0	0.9306094016550074	-0.5578384494687865	0.0
9	0.3018867924528301	0.9089902490682884	-0.6093599356137739	0.0	0.9074778418673771	-0.6095955020782161	0.0	0.9867191218365768	-0.685140846325825	0.0	0.9419570532985464	-0.7807422478920025	0.0	0.9793161321114927	-0.8009213405902817	0.0	0.9701362857896945	-0.8046265471526833	0.0	0.9274018924729459	-0.7928359109642317	0.0	0.9118303671336495	-0.6064863217223032	0.0	0.9856560256904424	-0.6823728361384385	0.0	0.9451332440856344	-0.7752256474227996	0.0	0.9824489525913045	-0.7975993500070933	0.0	0.976327921569574	-0.7949290485042352	0.0	0.9259588498197899	-0.7882007193419275	0.0	0.9763812505017849	-0.47932520251002686	0.0	1.0030538285173185	-0.412822120479779	0.0	1.0119403340339335	-0.44219851399251936	0.0	0.9708304692577631	-0.4970466450528661	0.0	0.9663717839537468	-0.5573038330376786	0.0	0.9697810987588297	-0.5960765243245972	0.0	0.968395452122214	-0.49194200641220204	0.0	0.965942800447694	-0.5444374473658017	0.0	0.9729886184197326	-0.5796808412282413	0.0
10	0.3354297693920335	0.9081510234204788	-0.629087325654426	0.0	0.906076597566176	-0.6297472666410808	0.0	0.9827396359037337	-0.7073371342209142	0.0	0.9410948296974684	-0.8022149498800636	0.0	0.9798564899526513	-0.8197419395719124	0.0	0.9709257733015008	-0.8236560431989881	0.0	0.9268930531903238	-0.8135019925667578	0.0	0.9122752860111472	-0.6270955992333687	0.0	0.9823909921535645	-0.705213058704313	0.0	0.9437437762046188	-0.7978256859525562	0.0	0.9829465763347166	-0.8177134154537963	0.0	0.9755797654400218	-0.8148656639129079	0.0	0.9252231297940442	-0.8094929924943784	0.0	0.970448833712023	-0.494501218659662	0.0	0.9891361351235136	-0.42544360836981515	0.0	1.002497627372497	-0.455129362564652	0.0	0.9642858240129032	-0.5120823800476011	0.0	0.9852938508716369	-0.5689929236691734	0.0	1.0117038471827675	-0.5993221156588102	0.0	0.9654881639959565	-0.50762929324741	0.0	0.9864919114697958	-0.5543424828290986	0.0	1.0142360478922774	-0.5809598671510707	0.0
11	0.36897274633123683	0.9089458332984619	-0.6457707176001591	0.0	0.9061529526513655	-0.6467772210468026	0.0	0.9778642715634969	-0.7286616028685774	0.0	0.9406398039399642	-0.8230813746411869	0.0	0.980410198213269	-0.8381002323411689	0.0	0.9716932816573542	-0.842248630373983	0.0	0.9269335452994676	-0.8335792616182318	0.0	0.9133910303300756	-0.6444712114742188	0.0	0.9776566188282082	-0.7270351611698732	0.0	0.9423363580857993	-0.8197260599176077	0.0	0.9827262489113386	-0.8365662757157163	0.0	0.9739179598723493	-0.8339640785198033	0.0	0.9246474689954972	-0.8297350079729707	0.0	0.9636119196947774	-0.5067775226159866	0.0	0.9740035362674605	-0.4353829306151562	0.0	0.992154881061558	-0.46531856481374756	0.0	0.9572405381769624	-0.5233666185805156	0.0	1.0002862831862038	-0.5666276736957231	0.0	1.043264013021744	-0.5795021734923451	0.0	0.961394487316016	-0.5190318971421883	0.0	1.0023575955528239	-0.5513516806617826	0.0	1.0442171487378542	-0.5612443796086376	0.0
